# xmcd
#
# Track frame offsets:
#	150
#	15948
#	29929
#	43013
#	56592
#	71601
#	84886
#	98959
#	113744
#	127329
#
# Disc length: 1885 seconds
#
# Revision: 1
# Processed by: cddbd v1.5.2PL0 Copyright (c) Steve Scherf et al.
# Submitted via: audiograbber 1.83.01
#
DISCID=85075b0a
DTITLE=Ivy York - The Call of Spring
DYEAR=2010
DGENRE=Folk
TTITLE0=The call of spring
TTITLE1=The more I have
TTITLE2=Aeroplane
TTITLE3=Island song
TTITLE4=Cowboy
TTITLE5=House of a hill
TTITLE6=Midnight man
TTITLE7=My happiness
TTITLE8=Opportunity
TTITLE9=Wicked man
EXTD=
EXTT0=
EXTT1=
EXTT2=
EXTT3=
EXTT4=
EXTT5=
EXTT6=
EXTT7=
EXTT8=
EXTT9=
PLAYORDER=
